<svg xmlns="http://www.w3.org/2000/svg" version="1.1" xmlns:xlink="http://www.w3.org/1999/xlink" width="512" height="512" x="0" y="0" viewBox="0 0 128 128" style="enable-background:new 0 0 512 512" xml:space="preserve" class=""><g><path d="M127.349 46.99a15.323 15.323 0 0 0-2.764-5.003 22.383 22.383 0 0 0-9.625-6.543 4.978 4.978 0 0 0-4.819.786c-1.054.861-2.063 1.775-3.083 2.676a4.475 4.475 0 0 0-1.475 2.45 4.416 4.416 0 0 0 2.838 5.156c1.707.648 5.386 2.046 2.769 4.179a12.397 12.397 0 0 1-4.42 2.01c-1.086.31-4.958 1.193-9.441 2.217-22.743 5.192-29.938 7.102-32.076 8.515a4.714 4.714 0 0 0-2.16 3.881 67.568 67.568 0 0 1-1.71 13.51 4.72 4.72 0 0 0 .724 3.958c1.134 1.548 2.88 1.85 4.668 1.968 1.118.074 2.249.283 3.369.283a4.976 4.976 0 0 0 4.913-4.15 31.756 31.756 0 0 1 .994-4.023c1.033-2.986 2.375-3.36 2.817-3.484a2.792 2.792 0 0 1 1.458-.098c1.166.315 2.84 1.962 3.655 3.597a6.753 6.753 0 0 1 .158 5.441 14.468 14.468 0 0 1-4.954 6.52 34.147 34.147 0 0 1-10.745 5.746A53.702 53.702 0 0 1 50.96 99.5c-1.492 0-3.016-.061-4.53-.182a32.464 32.464 0 0 1-10.62-2.552 20.126 20.126 0 0 1-9.35-7.616c-3.002-4.742-2.942-9.283.188-14.293a17.537 17.537 0 0 1 6.789-5.952 35.298 35.298 0 0 1 16.274-4.12c2.621-.072 5.242-.017 7.864-.017a4.577 4.577 0 0 0 4.485-3.117 21.106 21.106 0 0 1 .897-2.186 91.875 91.875 0 0 1 1.95-3.709 4.544 4.544 0 0 0-.298-4.886 4.302 4.302 0 0 0-3.888-2.133c-2.253 0-4.48.579-6.743.579a14.417 14.417 0 0 1-7.185-1.785 8.008 8.008 0 0 1-4.117-4.393 8.857 8.857 0 0 1 1.55-8.478c1.495-2.046 3.722-3.392 7.008-4.238a24.538 24.538 0 0 1 6.105-.752 29.693 29.693 0 0 1 3.541.22 24.509 24.509 0 0 1 6.63 1.75q.158 3.031.305 6.072a4.702 4.702 0 0 0 4.334 4.608c2 .197 4.246.782 6.196.016a4.838 4.838 0 0 0 2.861-3.755A122.33 122.33 0 0 1 83.8 26.21q.578-2.232 1.17-4.461a4.003 4.003 0 0 0-2.53-4.79l-.115-.04a57.241 57.241 0 0 0-12.656-2.63 41.761 41.761 0 0 0-3.076-.251 40.004 40.004 0 0 0-6.146.21 55.733 55.733 0 0 0-12.426 2.915 57.468 57.468 0 0 0-16.56 8.777 29.257 29.257 0 0 0-8.211 9.245 17.035 17.035 0 0 0-.65 15.628 14.951 14.951 0 0 0 4.033 5.264 51.812 51.812 0 0 0-15.755 8.526A29.838 29.838 0 0 0 2.026 75.57 22.357 22.357 0 0 0 .408 89.24a24.199 24.199 0 0 0 6.814 12.949 35.544 35.544 0 0 0 13.829 8.363c7.173 2.533 14.834 3.363 22.406 3.442q3.36.035 6.718-.147a85.222 85.222 0 0 0 18.419-2.914 81.417 81.417 0 0 0 26.725-12.867 33.814 33.814 0 0 0 8.47-8.569 15.117 15.117 0 0 0 2.81-7.894 15.46 15.46 0 0 0-3.698-10.835 62.318 62.318 0 0 0 9.434-2.426 30.705 30.705 0 0 0 9.606-5.086 15.691 15.691 0 0 0 5.363-7.56 14.413 14.413 0 0 0 .045-8.705z" fill="#ffffff" opacity="1" data-original="#000000" class=""></path></g></svg>